<?xml version="1.0" standalone="no"?>
<!DOCTYPE svg PUBLIC "-//W3C//DTD SVG 20010904//EN"
 "http://www.w3.org/TR/2001/REC-SVG-20010904/DTD/svg10.dtd">
<svg version="1.0" xmlns="http://www.w3.org/2000/svg"
 width="480.000000pt" height="480.000000pt" viewBox="0 0 480.000000 480.000000"
 preserveAspectRatio="xMidYMid meet">
<metadata>
Created by potrace 1.11, written by Peter Selinger 2001-2013
</metadata>
<g transform="translate(0.000000,480.000000) scale(0.100000,-0.100000)"
fill="#000000" stroke="none">
<path d="M2209 4796 c-2 -2 -33 -6 -69 -10 -66 -6 -100 -11 -155 -23 -16 -3
-39 -7 -50 -9 -11 -2 -47 -11 -80 -20 -33 -9 -67 -17 -76 -19 -28 -6 -203 -67
-259 -92 -219 -95 -447 -241 -614 -393 -98 -89 -226 -227 -265 -283 -8 -12
-18 -24 -22 -27 -25 -18 -172 -258 -229 -375 -57 -116 -131 -306 -145 -374 -2
-9 -13 -54 -24 -101 -11 -47 -23 -103 -26 -125 -4 -22 -8 -47 -10 -55 -28 -99
-25 -494 5 -675 19 -118 21 -130 26 -145 3 -8 8 -26 10 -40 19 -102 103 -330
176 -475 54 -106 206 -345 220 -345 4 0 8 -4 8 -10 0 -29 225 -264 351 -367
97 -79 263 -189 370 -246 87 -46 253 -119 299 -131 14 -4 34 -11 45 -16 11 -6
38 -16 60 -23 22 -7 39 -18 38 -25 -2 -6 4 -9 13 -5 8 3 14 2 13 -3 -4 -22 2
-34 17 -34 8 0 12 -4 9 -10 -3 -5 -1 -10 5 -10 7 0 9 -7 6 -16 -4 -10 -2 -13
6 -8 6 4 17 -1 25 -11 7 -11 13 -16 13 -12 0 6 22 -10 60 -43 9 -8 23 -16 30
-18 8 -2 32 -11 55 -21 38 -18 109 -43 130 -47 6 -1 28 -6 50 -12 167 -44 360
-30 505 36 30 14 58 24 63 24 4 -1 7 3 7 8 0 6 6 10 13 10 7 0 29 15 48 33 19
18 43 36 52 40 10 4 16 12 15 19 -2 7 3 12 10 10 8 -1 11 2 7 7 -3 6 4 15 15
21 11 6 18 15 16 19 -3 4 2 17 10 27 9 10 12 12 8 4 -7 -12 -5 -13 8 -2 8 6
62 28 119 47 108 37 125 44 249 103 138 65 354 201 426 267 7 5 31 26 55 45
55 45 189 179 254 255 61 71 165 211 165 223 0 4 9 17 19 29 11 11 36 51 56
89 20 38 41 76 46 84 22 35 89 192 118 274 43 121 81 267 97 368 24 160 29
219 28 403 -1 236 -32 443 -95 637 -11 35 -22 70 -24 78 -10 44 -100 245 -150
339 -155 285 -387 544 -680 759 -65 47 -226 142 -241 142 -7 0 -14 4 -16 9 -7
18 -326 148 -407 166 -9 2 -42 11 -73 19 -32 9 -72 18 -90 22 -77 13 -145 25
-173 30 -38 6 -470 15 -476 10z"/>
</g>
</svg>
